<?xml version="1.0" encoding="UTF-8" standalone="no"?>
<!DOCTYPE svg PUBLIC "-//W3C//DTD SVG 1.1//EN"
 "http://www.w3.org/Graphics/SVG/1.1/DTD/svg11.dtd">
<!-- Generated by graphviz version 2.38.0 (20140413.2041)
 -->
<!-- Title: G Pages: 1 -->
<svg width="404pt" height="252pt"
 viewBox="0.00 0.00 403.76 252.48" xmlns="http://www.w3.org/2000/svg" xmlns:xlink="http://www.w3.org/1999/xlink">
<g id="graph0" class="graph" transform="scale(1 1) rotate(0) translate(4 248.483)">
<title>G</title>
<!-- 0 -->
<g id="node1" class="node"><title>0</title>
<ellipse fill="none" stroke="black" cx="18" cy="-109" rx="18" ry="18"/>
<text text-anchor="middle" x="18" y="-104.8" font-family="Times,serif" font-size="14.00">0</text>
</g>
<!-- 0&#45;&gt;0 -->
<g id="edge1" class="edge"><title>0&#45;&gt;0</title>
<path fill="none" stroke="black" d="M11.2664,-126.037C9.89218,-135.858 12.1367,-145 18,-145 21.6646,-145 23.9155,-141.429 24.7529,-136.353"/>
<polygon fill="black" stroke="black" points="28.2524,-136.031 24.7336,-126.037 21.2524,-136.044 28.2524,-136.031"/>
<text text-anchor="middle" x="18" y="-147.8" font-family="Times,serif" font-size="14.00">!{h,s}</text>
</g>
<!-- 1 -->
<g id="node2" class="node"><title>1</title>
<ellipse fill="none" stroke="black" cx="97" cy="-142" rx="18" ry="18"/>
<text text-anchor="middle" x="97" y="-137.8" font-family="Times,serif" font-size="14.00">1</text>
</g>
<!-- 0&#45;&gt;1 -->
<g id="edge2" class="edge"><title>0&#45;&gt;1</title>
<path fill="none" stroke="black" d="M34.9544,-115.838C45.2787,-120.262 58.9428,-126.118 70.7256,-131.168"/>
<polygon fill="black" stroke="black" points="69.4958,-134.449 80.066,-135.171 72.2533,-128.015 69.4958,-134.449"/>
<text text-anchor="middle" x="57.5" y="-128.8" font-family="Times,serif" font-size="14.00">h</text>
</g>
<!-- 3 -->
<g id="node3" class="node"><title>3</title>
<ellipse fill="none" stroke="black" cx="97" cy="-18" rx="18" ry="18"/>
<text text-anchor="middle" x="97" y="-13.8" font-family="Times,serif" font-size="14.00">3</text>
</g>
<!-- 0&#45;&gt;3 -->
<g id="edge3" class="edge"><title>0&#45;&gt;3</title>
<path fill="none" stroke="black" d="M23.5079,-91.5433C28.516,-75.2673 38.0711,-51.2707 54,-36 58.4757,-31.7092 64.1332,-28.3607 69.8338,-25.7789"/>
<polygon fill="black" stroke="black" points="71.2051,-29.0012 79.2671,-22.127 68.6779,-22.4733 71.2051,-29.0012"/>
<text text-anchor="middle" x="57.5" y="-38.8" font-family="Times,serif" font-size="14.00">s</text>
</g>
<!-- 1&#45;&gt;0 -->
<g id="edge11" class="edge"><title>1&#45;&gt;0</title>
<path fill="none" stroke="black" stroke-dasharray="1,5" d="M80.9569,-133.081C74.8789,-129.677 67.7228,-125.918 61,-123 56.0162,-120.837 50.5824,-118.8 45.3272,-116.986"/>
<polygon fill="black" stroke="black" points="46.1994,-113.589 35.6066,-113.796 44.0166,-120.24 46.1994,-113.589"/>
</g>
<!-- 2 -->
<g id="node4" class="node"><title>2</title>
<ellipse fill="red" stroke="red" cx="176" cy="-205" rx="18" ry="18"/>
<text text-anchor="middle" x="176" y="-200.8" font-family="Times,serif" font-size="14.00">2</text>
</g>
<!-- 1&#45;&gt;2 -->
<g id="edge4" class="edge"><title>1&#45;&gt;2</title>
<path fill="none" stroke="black" d="M111.412,-152.974C123.045,-162.491 140.089,-176.437 153.604,-187.494"/>
<polygon fill="black" stroke="black" points="151.527,-190.317 161.483,-193.941 155.96,-184.899 151.527,-190.317"/>
<text text-anchor="middle" x="136.5" y="-177.8" font-family="Times,serif" font-size="14.00">e</text>
</g>
<!-- 6 -->
<g id="node5" class="node"><title>6</title>
<ellipse fill="none" stroke="black" cx="176" cy="-79" rx="18" ry="18"/>
<text text-anchor="middle" x="176" y="-74.8" font-family="Times,serif" font-size="14.00">6</text>
</g>
<!-- 1&#45;&gt;6 -->
<g id="edge5" class="edge"><title>1&#45;&gt;6</title>
<path fill="none" stroke="black" d="M104.511,-125.532C110.204,-113.296 119.661,-97.1924 133,-88 137.415,-84.9572 142.664,-82.9137 147.929,-81.5482"/>
<polygon fill="black" stroke="black" points="148.683,-84.9677 157.86,-79.6733 147.385,-78.0892 148.683,-84.9677"/>
<text text-anchor="middle" x="136.5" y="-90.8" font-family="Times,serif" font-size="14.00">i</text>
</g>
<!-- 3&#45;&gt;0 -->
<g id="edge13" class="edge"><title>3&#45;&gt;0</title>
<path fill="none" stroke="black" stroke-dasharray="1,5" d="M78.8981,-17.6325C70.5876,-18.2914 60.9262,-20.3993 54,-26 37.149,-39.6262 28.2857,-62.8205 23.7,-81.2317"/>
<polygon fill="black" stroke="black" points="20.2499,-80.6246 21.5175,-91.1433 27.0861,-82.1299 20.2499,-80.6246"/>
</g>
<!-- 4 -->
<g id="node8" class="node"><title>4</title>
<ellipse fill="none" stroke="black" cx="176" cy="-145" rx="18" ry="18"/>
<text text-anchor="middle" x="176" y="-140.8" font-family="Times,serif" font-size="14.00">4</text>
</g>
<!-- 3&#45;&gt;4 -->
<g id="edge8" class="edge"><title>3&#45;&gt;4</title>
<path fill="none" stroke="black" d="M102.982,-35.024C108.618,-52.6839 118.884,-80.6511 133,-102 138.833,-110.822 146.63,-119.398 153.921,-126.54"/>
<polygon fill="black" stroke="black" points="151.832,-129.379 161.519,-133.671 156.623,-124.275 151.832,-129.379"/>
<text text-anchor="middle" x="136.5" y="-113.8" font-family="Times,serif" font-size="14.00">h</text>
</g>
<!-- 2&#45;&gt;0 -->
<g id="edge12" class="edge"><title>2&#45;&gt;0</title>
<path fill="none" stroke="black" stroke-dasharray="1,5" d="M158.474,-200.852C150.667,-198.747 141.269,-196.002 133,-193 108.313,-184.037 100.649,-183.869 79,-169 63.1616,-158.122 47.8874,-142.754 36.7138,-130.294"/>
<polygon fill="black" stroke="black" points="39.2121,-127.834 29.9986,-122.603 33.9391,-132.438 39.2121,-127.834"/>
<text text-anchor="middle" x="97" y="-189.8" font-family="Times,serif" font-size="14.00">{he}</text>
</g>
<!-- 8 -->
<g id="node6" class="node"><title>8</title>
<ellipse fill="none" stroke="black" cx="300.315" cy="-219" rx="18" ry="18"/>
<text text-anchor="middle" x="300.315" y="-214.8" font-family="Times,serif" font-size="14.00">8</text>
</g>
<!-- 2&#45;&gt;8 -->
<g id="edge6" class="edge"><title>2&#45;&gt;8</title>
<path fill="none" stroke="black" d="M194.007,-206.947C214.159,-209.253 248.003,-213.127 271.876,-215.859"/>
<polygon fill="black" stroke="black" points="271.725,-219.365 282.058,-217.025 272.521,-212.41 271.725,-219.365"/>
<text text-anchor="middle" x="238.158" y="-216.8" font-family="Times,serif" font-size="14.00">r</text>
</g>
<!-- 6&#45;&gt;0 -->
<g id="edge14" class="edge"><title>6&#45;&gt;0</title>
<path fill="none" stroke="black" stroke-dasharray="1,5" d="M157.765,-78.5385C150.144,-78.5585 141.093,-78.8888 133,-80 102.296,-84.2159 67.9335,-93.6244 45.0398,-100.588"/>
<polygon fill="black" stroke="black" points="43.8941,-97.2785 35.3825,-103.588 45.9707,-103.963 43.8941,-97.2785"/>
</g>
<!-- 7 -->
<g id="node10" class="node"><title>7</title>
<ellipse fill="red" stroke="red" cx="300.315" cy="-46" rx="18" ry="18"/>
<text text-anchor="middle" x="300.315" y="-41.8" font-family="Times,serif" font-size="14.00">7</text>
</g>
<!-- 6&#45;&gt;7 -->
<g id="edge10" class="edge"><title>6&#45;&gt;7</title>
<path fill="none" stroke="black" d="M193.496,-74.5495C213.831,-69.0631 248.652,-59.6686 272.769,-53.1622"/>
<polygon fill="black" stroke="black" points="273.947,-56.4695 282.69,-50.4854 272.124,-49.7111 273.947,-56.4695"/>
<text text-anchor="middle" x="238.158" y="-71.8" font-family="Times,serif" font-size="14.00">s</text>
</g>
<!-- 8&#45;&gt;0 -->
<g id="edge15" class="edge"><title>8&#45;&gt;0</title>
<path fill="none" stroke="black" stroke-dasharray="1,5" d="M283.621,-226.184C277.701,-228.529 270.823,-230.831 264.315,-232 182.396,-246.722 144.2,-256.736 79,-205 55.7688,-186.566 39.0786,-156.511 29.2895,-134.939"/>
<polygon fill="black" stroke="black" points="32.4702,-133.476 25.2786,-125.696 26.0488,-136.263 32.4702,-133.476"/>
</g>
<!-- 9 -->
<g id="node7" class="node"><title>9</title>
<ellipse fill="red" stroke="red" cx="377.764" cy="-50" rx="18" ry="18"/>
<text text-anchor="middle" x="377.764" y="-45.8" font-family="Times,serif" font-size="14.00">9</text>
</g>
<!-- 8&#45;&gt;9 -->
<g id="edge7" class="edge"><title>8&#45;&gt;9</title>
<path fill="none" stroke="black" d="M308.812,-202.813C311.79,-196.348 315.234,-188.831 318.315,-182 334.947,-145.131 353.837,-102.289 365.529,-75.6565"/>
<polygon fill="black" stroke="black" points="368.826,-76.8531 369.637,-66.2894 362.415,-74.0412 368.826,-76.8531"/>
<text text-anchor="middle" x="339.04" y="-140.8" font-family="Times,serif" font-size="14.00">s</text>
</g>
<!-- 9&#45;&gt;3 -->
<g id="edge19" class="edge"><title>9&#45;&gt;3</title>
<path fill="none" stroke="black" stroke-dasharray="1,5" d="M362.116,-40.0231C350.715,-32.8193 334.208,-23.5836 318.315,-19 251.036,0.40455 167.318,-7.43175 125.076,-13.472"/>
<polygon fill="black" stroke="black" points="124.391,-10.0357 115.026,-14.9894 125.436,-16.9572 124.391,-10.0357"/>
<text text-anchor="middle" x="238.158" y="-11.8" font-family="Times,serif" font-size="14.00">{hers}</text>
</g>
<!-- 4&#45;&gt;1 -->
<g id="edge16" class="edge"><title>4&#45;&gt;1</title>
<path fill="none" stroke="black" stroke-dasharray="1,5" d="M157.959,-144.336C148.397,-143.964 136.241,-143.49 125.378,-143.067"/>
<polygon fill="black" stroke="black" points="125.218,-139.558 115.089,-142.666 124.945,-146.553 125.218,-139.558"/>
</g>
<!-- 5 -->
<g id="node9" class="node"><title>5</title>
<ellipse fill="red" stroke="red" cx="300.315" cy="-155" rx="18" ry="18"/>
<text text-anchor="middle" x="300.315" y="-150.8" font-family="Times,serif" font-size="14.00">5</text>
</g>
<!-- 4&#45;&gt;5 -->
<g id="edge9" class="edge"><title>4&#45;&gt;5</title>
<path fill="none" stroke="black" d="M194.152,-143.988C211.822,-143.228 240.119,-142.798 264.315,-146 267.077,-146.366 269.934,-146.875 272.77,-147.468"/>
<polygon fill="black" stroke="black" points="272.2,-150.93 282.741,-149.869 273.839,-144.125 272.2,-150.93"/>
<text text-anchor="middle" x="238.158" y="-148.8" font-family="Times,serif" font-size="14.00">e</text>
</g>
<!-- 5&#45;&gt;2 -->
<g id="edge17" class="edge"><title>5&#45;&gt;2</title>
<path fill="none" stroke="black" stroke-dasharray="1,5" d="M283.321,-161.538C262.716,-169.961 226.661,-184.7 202.315,-194.652"/>
<polygon fill="black" stroke="black" points="200.923,-191.44 192.991,-198.463 203.571,-197.919 200.923,-191.44"/>
<text text-anchor="middle" x="238.158" y="-192.8" font-family="Times,serif" font-size="14.00">{he, she}</text>
</g>
<!-- 7&#45;&gt;3 -->
<g id="edge18" class="edge"><title>7&#45;&gt;3</title>
<path fill="none" stroke="black" stroke-dasharray="1,5" d="M282.195,-43.6188C247.244,-38.7576 167.433,-27.6571 125.266,-21.7923"/>
<polygon fill="black" stroke="black" points="125.551,-18.2983 115.164,-20.3873 124.587,-25.2316 125.551,-18.2983"/>
<text text-anchor="middle" x="176" y="-33.8" font-family="Times,serif" font-size="14.00">{his}</text>
</g>
</g>
</svg>
