<?xml version="1.0" encoding="UTF-8" standalone="no"?>
<!DOCTYPE svg PUBLIC "-//W3C//DTD SVG 1.1//EN"
 "http://www.w3.org/Graphics/SVG/1.1/DTD/svg11.dtd">
<!-- Generated by graphviz version 2.38.0 (20140413.2041)
 -->
<!-- Title: G Pages: 1 -->
<svg width="358pt" height="152pt"
 viewBox="0.00 0.00 357.66 152.00" xmlns="http://www.w3.org/2000/svg" xmlns:xlink="http://www.w3.org/1999/xlink">
<g id="graph0" class="graph" transform="scale(1 1) rotate(0) translate(4 148)">
<title>G</title>
<!-- 0 -->
<g id="node1" class="node"><title>0</title>
<ellipse fill="none" stroke="black" cx="18" cy="-46" rx="18" ry="18"/>
<text text-anchor="middle" x="18" y="-41.8" font-family="Times,serif" font-size="14.00">0</text>
</g>
<!-- 0&#45;&gt;0 -->
<g id="edge1" class="edge"><title>0&#45;&gt;0</title>
<path fill="none" stroke="black" d="M11.2664,-63.0373C9.89218,-72.8579 12.1367,-82 18,-82 21.6646,-82 23.9155,-78.4289 24.7529,-73.3529"/>
<polygon fill="black" stroke="black" points="28.2524,-73.0307 24.7336,-63.0373 21.2524,-73.0439 28.2524,-73.0307"/>
<text text-anchor="middle" x="18" y="-84.8" font-family="Times,serif" font-size="14.00">!{h,s}</text>
</g>
<!-- 1 -->
<g id="node2" class="node"><title>1</title>
<ellipse fill="none" stroke="black" cx="97" cy="-72" rx="18" ry="18"/>
<text text-anchor="middle" x="97" y="-67.8" font-family="Times,serif" font-size="14.00">1</text>
</g>
<!-- 0&#45;&gt;1 -->
<g id="edge2" class="edge"><title>0&#45;&gt;1</title>
<path fill="none" stroke="black" d="M35.3297,-51.5139C45.4364,-54.9266 58.635,-59.3832 70.1398,-63.268"/>
<polygon fill="black" stroke="black" points="69.0996,-66.6108 79.6938,-66.494 71.3391,-59.9787 69.0996,-66.6108"/>
<text text-anchor="middle" x="57.5" y="-62.8" font-family="Times,serif" font-size="14.00">h</text>
</g>
<!-- 3 -->
<g id="node3" class="node"><title>3</title>
<ellipse fill="none" stroke="black" cx="97" cy="-18" rx="18" ry="18"/>
<text text-anchor="middle" x="97" y="-13.8" font-family="Times,serif" font-size="14.00">3</text>
</g>
<!-- 0&#45;&gt;3 -->
<g id="edge3" class="edge"><title>0&#45;&gt;3</title>
<path fill="none" stroke="black" d="M35.3297,-40.0619C45.5046,-36.3619 58.8135,-31.5224 70.3728,-27.319"/>
<polygon fill="black" stroke="black" points="71.756,-30.5403 79.9579,-23.8335 69.3638,-23.9617 71.756,-30.5403"/>
<text text-anchor="middle" x="57.5" y="-35.8" font-family="Times,serif" font-size="14.00">s</text>
</g>
<!-- 2 -->
<g id="node4" class="node"><title>2</title>
<ellipse fill="none" stroke="black" cx="176" cy="-126" rx="18" ry="18"/>
<text text-anchor="middle" x="176" y="-121.8" font-family="Times,serif" font-size="14.00">2</text>
</g>
<!-- 1&#45;&gt;2 -->
<g id="edge4" class="edge"><title>1&#45;&gt;2</title>
<path fill="none" stroke="black" d="M112.123,-81.9044C123.341,-89.7714 139.249,-100.928 152.257,-110.05"/>
<polygon fill="black" stroke="black" points="150.509,-113.099 160.706,-115.975 154.528,-107.368 150.509,-113.099"/>
<text text-anchor="middle" x="136.5" y="-103.8" font-family="Times,serif" font-size="14.00">e</text>
</g>
<!-- 6 -->
<g id="node5" class="node"><title>6</title>
<ellipse fill="none" stroke="black" cx="176" cy="-72" rx="18" ry="18"/>
<text text-anchor="middle" x="176" y="-67.8" font-family="Times,serif" font-size="14.00">6</text>
</g>
<!-- 1&#45;&gt;6 -->
<g id="edge5" class="edge"><title>1&#45;&gt;6</title>
<path fill="none" stroke="black" d="M115.089,-72C124.659,-72 136.817,-72 147.677,-72"/>
<polygon fill="black" stroke="black" points="147.959,-75.5001 157.959,-72 147.959,-68.5001 147.959,-75.5001"/>
<text text-anchor="middle" x="136.5" y="-74.8" font-family="Times,serif" font-size="14.00">i</text>
</g>
<!-- 4 -->
<g id="node8" class="node"><title>4</title>
<ellipse fill="none" stroke="black" cx="176" cy="-18" rx="18" ry="18"/>
<text text-anchor="middle" x="176" y="-13.8" font-family="Times,serif" font-size="14.00">4</text>
</g>
<!-- 3&#45;&gt;4 -->
<g id="edge8" class="edge"><title>3&#45;&gt;4</title>
<path fill="none" stroke="black" d="M115.089,-18C124.659,-18 136.817,-18 147.677,-18"/>
<polygon fill="black" stroke="black" points="147.959,-21.5001 157.959,-18 147.959,-14.5001 147.959,-21.5001"/>
<text text-anchor="middle" x="136.5" y="-20.8" font-family="Times,serif" font-size="14.00">h</text>
</g>
<!-- 8 -->
<g id="node6" class="node"><title>8</title>
<ellipse fill="none" stroke="black" cx="254.214" cy="-126" rx="18" ry="18"/>
<text text-anchor="middle" x="254.214" y="-121.8" font-family="Times,serif" font-size="14.00">8</text>
</g>
<!-- 2&#45;&gt;8 -->
<g id="edge6" class="edge"><title>2&#45;&gt;8</title>
<path fill="none" stroke="black" d="M194.294,-126C203.649,-126 215.417,-126 225.972,-126"/>
<polygon fill="black" stroke="black" points="225.988,-129.5 235.988,-126 225.988,-122.5 225.988,-129.5"/>
<text text-anchor="middle" x="215.107" y="-128.8" font-family="Times,serif" font-size="14.00">r</text>
</g>
<!-- 7 -->
<g id="node10" class="node"><title>7</title>
<ellipse fill="none" stroke="black" cx="254.214" cy="-72" rx="18" ry="18"/>
<text text-anchor="middle" x="254.214" y="-67.8" font-family="Times,serif" font-size="14.00">7</text>
</g>
<!-- 6&#45;&gt;7 -->
<g id="edge10" class="edge"><title>6&#45;&gt;7</title>
<path fill="none" stroke="black" d="M194.294,-72C203.649,-72 215.417,-72 225.972,-72"/>
<polygon fill="black" stroke="black" points="225.988,-75.5001 235.988,-72 225.988,-68.5001 225.988,-75.5001"/>
<text text-anchor="middle" x="215.107" y="-74.8" font-family="Times,serif" font-size="14.00">s</text>
</g>
<!-- 9 -->
<g id="node7" class="node"><title>9</title>
<ellipse fill="none" stroke="black" cx="331.662" cy="-126" rx="18" ry="18"/>
<text text-anchor="middle" x="331.662" y="-121.8" font-family="Times,serif" font-size="14.00">9</text>
</g>
<!-- 8&#45;&gt;9 -->
<g id="edge7" class="edge"><title>8&#45;&gt;9</title>
<path fill="none" stroke="black" d="M272.334,-126C281.498,-126 293.003,-126 303.367,-126"/>
<polygon fill="black" stroke="black" points="303.61,-129.5 313.609,-126 303.609,-122.5 303.61,-129.5"/>
<text text-anchor="middle" x="292.938" y="-128.8" font-family="Times,serif" font-size="14.00">s</text>
</g>
<!-- 5 -->
<g id="node9" class="node"><title>5</title>
<ellipse fill="none" stroke="black" cx="254.214" cy="-18" rx="18" ry="18"/>
<text text-anchor="middle" x="254.214" y="-13.8" font-family="Times,serif" font-size="14.00">5</text>
</g>
<!-- 4&#45;&gt;5 -->
<g id="edge9" class="edge"><title>4&#45;&gt;5</title>
<path fill="none" stroke="black" d="M194.294,-18C203.649,-18 215.417,-18 225.972,-18"/>
<polygon fill="black" stroke="black" points="225.988,-21.5001 235.988,-18 225.988,-14.5001 225.988,-21.5001"/>
<text text-anchor="middle" x="215.107" y="-20.8" font-family="Times,serif" font-size="14.00">e</text>
</g>
</g>
</svg>
