<?xml version="1.0" encoding="UTF-8" standalone="no"?>
<!DOCTYPE svg PUBLIC "-//W3C//DTD SVG 1.1//EN"
 "http://www.w3.org/Graphics/SVG/1.1/DTD/svg11.dtd">
<!-- Generated by graphviz version 2.38.0 (20140413.2041)
 -->
<!-- Title: G Pages: 1 -->
<svg width="149pt" height="175pt"
 viewBox="0.00 0.00 148.68 174.90" xmlns="http://www.w3.org/2000/svg" xmlns:xlink="http://www.w3.org/1999/xlink">
<g id="graph0" class="graph" transform="scale(1 1) rotate(0) translate(4 170.901)">
<title>G</title>
<!-- x1 -->
<g id="node1" class="node"><title>x1</title>
<ellipse fill="none" stroke="black" cx="33.8316" cy="-18.9503" rx="18.9007" ry="18.9007"/>
<text text-anchor="middle" x="33.8316" y="-14.7503" font-family="Times,serif" font-size="14.00">x1</text>
</g>
<!-- y1 -->
<g id="node2" class="node"><title>y1</title>
<ellipse fill="none" stroke="black" cx="121.732" cy="-18.9503" rx="18.9007" ry="18.9007"/>
<text text-anchor="middle" x="121.732" y="-14.7503" font-family="Times,serif" font-size="14.00">y1</text>
</g>
<!-- x1&#45;&gt;y1 -->
<g id="edge1" class="edge"><title>x1&#45;&gt;y1</title>
<path fill="none" stroke="black" d="M53.0489,-18.9503C64.4376,-18.9503 79.3459,-18.9503 92.2711,-18.9503"/>
<polygon fill="black" stroke="black" points="92.5411,-22.4504 102.541,-18.9503 92.5411,-15.4504 92.5411,-22.4504"/>
<text text-anchor="middle" x="77.7818" y="-21.7503" font-family="Times,serif" font-size="14.00">b1</text>
</g>
<!-- x2 -->
<g id="node3" class="node"><title>x2</title>
<ellipse fill="none" stroke="black" cx="33.8316" cy="-147.95" rx="18.9007" ry="18.9007"/>
<text text-anchor="middle" x="33.8316" y="-143.75" font-family="Times,serif" font-size="14.00">x2</text>
</g>
<!-- x1&#45;&gt;x2 -->
<g id="edge2" class="edge"><title>x1&#45;&gt;x2</title>
<path fill="none" stroke="black" d="M20.66,-32.6936C15.9899,-38.4781 11.2971,-45.5749 8.88127,-52.9503 2.79408,-71.5343 4.47078,-77.8986 8.88127,-96.9503 10.9265,-105.785 14.7241,-114.856 18.7504,-122.853"/>
<polygon fill="black" stroke="black" points="15.6721,-124.519 23.4906,-131.669 21.8373,-121.204 15.6721,-124.519"/>
<text text-anchor="middle" x="10.5531" y="-35.4936" font-family="Times,serif" font-size="14.00">a12</text>
</g>
<!-- x2&#45;&gt;x1 -->
<g id="edge4" class="edge"><title>x2&#45;&gt;x1</title>
<path fill="none" stroke="black" d="M22.224,-132.85C10.1009,-115.159 -6.00539,-84.9571 2.88127,-58.9503 5.17036,-52.2513 9.08749,-45.8043 13.3801,-40.1152"/>
<polygon fill="black" stroke="black" points="16.1042,-42.3132 19.7922,-32.3809 10.7153,-37.8455 16.1042,-42.3132"/>
<text text-anchor="middle" x="12.1171" y="-121.65" font-family="Times,serif" font-size="14.00">a21</text>
</g>
<!-- y2 -->
<g id="node4" class="node"><title>y2</title>
<ellipse fill="none" stroke="black" cx="121.732" cy="-147.95" rx="18.9007" ry="18.9007"/>
<text text-anchor="middle" x="121.732" y="-143.75" font-family="Times,serif" font-size="14.00">y2</text>
</g>
<!-- x2&#45;&gt;y2 -->
<g id="edge3" class="edge"><title>x2&#45;&gt;y2</title>
<path fill="none" stroke="black" d="M53.0489,-147.95C64.4376,-147.95 79.3459,-147.95 92.2711,-147.95"/>
<polygon fill="black" stroke="black" points="92.5411,-151.45 102.541,-147.95 92.5411,-144.45 92.5411,-151.45"/>
<text text-anchor="middle" x="77.7818" y="-150.75" font-family="Times,serif" font-size="14.00">b2</text>
</g>
<!-- x3 -->
<g id="node5" class="node"><title>x3</title>
<ellipse fill="none" stroke="black" cx="33.8316" cy="-74.9503" rx="18.9007" ry="18.9007"/>
<text text-anchor="middle" x="33.8316" y="-70.7503" font-family="Times,serif" font-size="14.00">x3</text>
</g>
<!-- x2&#45;&gt;x3 -->
<g id="edge5" class="edge"><title>x2&#45;&gt;x3</title>
<path fill="none" stroke="black" d="M33.8316,-128.898C33.8316,-121.369 33.8316,-112.543 33.8316,-104.237"/>
<polygon fill="black" stroke="black" points="37.3317,-104.13 33.8316,-94.1302 30.3317,-104.13 37.3317,-104.13"/>
<text text-anchor="middle" x="23.8316" y="-107.25" font-family="Times,serif" font-size="14.00">a23</text>
</g>
<!-- y3 -->
<g id="node6" class="node"><title>y3</title>
<ellipse fill="none" stroke="black" cx="121.732" cy="-74.9503" rx="18.9007" ry="18.9007"/>
<text text-anchor="middle" x="121.732" y="-70.7503" font-family="Times,serif" font-size="14.00">y3</text>
</g>
<!-- x3&#45;&gt;y3 -->
<g id="edge6" class="edge"><title>x3&#45;&gt;y3</title>
<path fill="none" stroke="black" d="M53.0489,-74.9503C64.4376,-74.9503 79.3459,-74.9503 92.2711,-74.9503"/>
<polygon fill="black" stroke="black" points="92.5411,-78.4504 102.541,-74.9503 92.5411,-71.4504 92.5411,-78.4504"/>
<text text-anchor="middle" x="77.7818" y="-77.7503" font-family="Times,serif" font-size="14.00">b3</text>
</g>
</g>
</svg>
