<?xml version="1.0" encoding="UTF-8" standalone="no"?>
<!DOCTYPE svg PUBLIC "-//W3C//DTD SVG 1.1//EN"
 "http://www.w3.org/Graphics/SVG/1.1/DTD/svg11.dtd">
<!-- Generated by graphviz version 2.38.0 (20140413.2041)
 -->
<!-- Title: G Pages: 1 -->
<svg width="172pt" height="150pt"
 viewBox="0.00 0.00 172.00 150.00" xmlns="http://www.w3.org/2000/svg" xmlns:xlink="http://www.w3.org/1999/xlink">
<g id="graph0" class="graph" transform="scale(1 1) rotate(0) translate(4 146)">
<title>G</title>
<!-- x11 -->
<g id="node1" class="node"><title>x11</title>
<ellipse fill="black" stroke="black" cx="7" cy="-103" rx="7" ry="7"/>
</g>
<!-- x21 -->
<g id="node6" class="node"><title>x21</title>
<ellipse fill="black" stroke="black" cx="57" cy="-103" rx="7" ry="7"/>
</g>
<!-- x11&#45;&gt;x21 -->
<g id="edge1" class="edge"><title>x11&#45;&gt;x21</title>
<path fill="none" stroke="black" d="M14.2752,-103C22.0076,-103 35.2861,-103 44.7876,-103"/>
<polygon fill="black" stroke="black" points="44.8751,-104.75 49.8751,-103 44.875,-101.25 44.8751,-104.75"/>
</g>
<!-- x22 -->
<g id="node7" class="node"><title>x22</title>
<ellipse fill="black" stroke="black" cx="57" cy="-71" rx="7" ry="7"/>
</g>
<!-- x11&#45;&gt;x22 -->
<g id="edge2" class="edge"><title>x11&#45;&gt;x22</title>
<path fill="none" stroke="black" d="M13.1368,-99.5754C21.1065,-94.2623 36.5731,-83.9513 46.5849,-77.2767"/>
<polygon fill="black" stroke="black" points="47.5651,-78.7266 50.7546,-74.4969 45.6236,-75.8144 47.5651,-78.7266"/>
</g>
<!-- x23 -->
<g id="node8" class="node"><title>x23</title>
<ellipse fill="black" stroke="black" cx="57" cy="-39" rx="7" ry="7"/>
</g>
<!-- x11&#45;&gt;x23 -->
<g id="edge3" class="edge"><title>x11&#45;&gt;x23</title>
<path fill="none" stroke="black" d="M12.0925,-97.5434C20.3215,-86.5714 38.9497,-61.7337 49.097,-48.204"/>
<polygon fill="black" stroke="black" points="50.5858,-49.1356 52.1859,-44.0855 47.7858,-47.0355 50.5858,-49.1356"/>
</g>
<!-- x24 -->
<g id="node9" class="node"><title>x24</title>
<ellipse fill="black" stroke="black" cx="57" cy="-7" rx="7" ry="7"/>
<text text-anchor="middle" x="57" y="-2.8" font-family="Times,serif" font-size="14.00" fill="white">2</text>
</g>
<!-- x11&#45;&gt;x24 -->
<g id="edge4" class="edge"><title>x11&#45;&gt;x24</title>
<path fill="none" stroke="black" d="M11.0026,-96.9948C18.9493,-81.1014 40.61,-37.78 50.6984,-17.6032"/>
<polygon fill="black" stroke="black" points="52.3276,-18.2577 52.9985,-13.003 49.1971,-16.6925 52.3276,-18.2577"/>
</g>
<!-- x25 -->
<g id="node10" class="node"><title>x25</title>
<ellipse fill="black" stroke="black" cx="57" cy="-135" rx="7" ry="7"/>
</g>
<!-- x11&#45;&gt;x25 -->
<g id="edge5" class="edge"><title>x11&#45;&gt;x25</title>
<path fill="none" stroke="black" d="M13.1368,-106.425C21.1065,-111.738 36.5731,-122.049 46.5849,-128.723"/>
<polygon fill="black" stroke="black" points="45.6236,-130.186 50.7546,-131.503 47.5651,-127.273 45.6236,-130.186"/>
</g>
<!-- x12 -->
<g id="node2" class="node"><title>x12</title>
<ellipse fill="black" stroke="black" cx="7" cy="-71" rx="7" ry="7"/>
</g>
<!-- x12&#45;&gt;x21 -->
<g id="edge6" class="edge"><title>x12&#45;&gt;x21</title>
<path fill="none" stroke="black" d="M13.1368,-74.4246C21.1065,-79.7377 36.5731,-90.0487 46.5849,-96.7233"/>
<polygon fill="black" stroke="black" points="45.6236,-98.1856 50.7546,-99.5031 47.5651,-95.2734 45.6236,-98.1856"/>
</g>
<!-- x12&#45;&gt;x22 -->
<g id="edge7" class="edge"><title>x12&#45;&gt;x22</title>
<path fill="none" stroke="black" d="M14.2752,-71C22.0076,-71 35.2861,-71 44.7876,-71"/>
<polygon fill="black" stroke="black" points="44.8751,-72.7501 49.8751,-71 44.875,-69.2501 44.8751,-72.7501"/>
</g>
<!-- x12&#45;&gt;x23 -->
<g id="edge8" class="edge"><title>x12&#45;&gt;x23</title>
<path fill="none" stroke="black" d="M13.1368,-67.5754C21.1065,-62.2623 36.5731,-51.9513 46.5849,-45.2767"/>
<polygon fill="black" stroke="black" points="47.5651,-46.7266 50.7546,-42.4969 45.6236,-43.8144 47.5651,-46.7266"/>
</g>
<!-- x12&#45;&gt;x24 -->
<g id="edge9" class="edge"><title>x12&#45;&gt;x24</title>
<path fill="none" stroke="black" d="M12.0925,-65.5434C20.3215,-54.5714 38.9497,-29.7337 49.097,-16.204"/>
<polygon fill="black" stroke="black" points="50.5858,-17.1356 52.1859,-12.0855 47.7858,-15.0355 50.5858,-17.1356"/>
</g>
<!-- x12&#45;&gt;x25 -->
<g id="edge10" class="edge"><title>x12&#45;&gt;x25</title>
<path fill="none" stroke="black" d="M12.0925,-76.4566C20.3215,-87.4286 38.9497,-112.266 49.097,-125.796"/>
<polygon fill="black" stroke="black" points="47.7858,-126.964 52.1859,-129.914 50.5858,-124.864 47.7858,-126.964"/>
</g>
<!-- x13 -->
<g id="node3" class="node"><title>x13</title>
<ellipse fill="black" stroke="black" cx="7" cy="-39" rx="7" ry="7"/>
</g>
<!-- x13&#45;&gt;x21 -->
<g id="edge11" class="edge"><title>x13&#45;&gt;x21</title>
<path fill="none" stroke="black" d="M12.0925,-44.4566C20.3215,-55.4286 38.9497,-80.2663 49.097,-93.796"/>
<polygon fill="black" stroke="black" points="47.7858,-94.9645 52.1859,-97.9145 50.5858,-92.8644 47.7858,-94.9645"/>
</g>
<!-- x13&#45;&gt;x22 -->
<g id="edge12" class="edge"><title>x13&#45;&gt;x22</title>
<path fill="none" stroke="black" d="M13.1368,-42.4246C21.1065,-47.7377 36.5731,-58.0487 46.5849,-64.7233"/>
<polygon fill="black" stroke="black" points="45.6236,-66.1856 50.7546,-67.5031 47.5651,-63.2734 45.6236,-66.1856"/>
</g>
<!-- x13&#45;&gt;x23 -->
<g id="edge13" class="edge"><title>x13&#45;&gt;x23</title>
<path fill="none" stroke="black" d="M14.2752,-39C22.0076,-39 35.2861,-39 44.7876,-39"/>
<polygon fill="black" stroke="black" points="44.8751,-40.7501 49.8751,-39 44.875,-37.2501 44.8751,-40.7501"/>
</g>
<!-- x13&#45;&gt;x24 -->
<g id="edge14" class="edge"><title>x13&#45;&gt;x24</title>
<path fill="none" stroke="black" d="M13.1368,-35.5754C21.1065,-30.2623 36.5731,-19.9513 46.5849,-13.2767"/>
<polygon fill="black" stroke="black" points="47.5651,-14.7266 50.7546,-10.4969 45.6236,-11.8144 47.5651,-14.7266"/>
</g>
<!-- x13&#45;&gt;x25 -->
<g id="edge15" class="edge"><title>x13&#45;&gt;x25</title>
<path fill="none" stroke="black" d="M11.0026,-45.0052C18.9493,-60.8986 40.61,-104.22 50.6984,-124.397"/>
<polygon fill="black" stroke="black" points="49.1971,-125.308 52.9985,-128.997 52.3276,-123.742 49.1971,-125.308"/>
</g>
<!-- x14 -->
<g id="node4" class="node"><title>x14</title>
<ellipse fill="black" stroke="black" cx="7" cy="-7" rx="7" ry="7"/>
<text text-anchor="middle" x="7" y="-2.8" font-family="Times,serif" font-size="14.00" fill="white">1</text>
</g>
<!-- x14&#45;&gt;x21 -->
<g id="edge16" class="edge"><title>x14&#45;&gt;x21</title>
<path fill="none" stroke="black" d="M11.0026,-13.0052C18.9493,-28.8986 40.61,-72.22 50.6984,-92.3968"/>
<polygon fill="black" stroke="black" points="49.1971,-93.3075 52.9985,-96.997 52.3276,-91.7423 49.1971,-93.3075"/>
</g>
<!-- x14&#45;&gt;x22 -->
<g id="edge17" class="edge"><title>x14&#45;&gt;x22</title>
<path fill="none" stroke="black" d="M12.0925,-12.4566C20.3215,-23.4286 38.9497,-48.2663 49.097,-61.796"/>
<polygon fill="black" stroke="black" points="47.7858,-62.9645 52.1859,-65.9145 50.5858,-60.8644 47.7858,-62.9645"/>
</g>
<!-- x14&#45;&gt;x23 -->
<g id="edge18" class="edge"><title>x14&#45;&gt;x23</title>
<path fill="none" stroke="black" d="M13.1368,-10.4246C21.1065,-15.7377 36.5731,-26.0487 46.5849,-32.7233"/>
<polygon fill="black" stroke="black" points="45.6236,-34.1856 50.7546,-35.5031 47.5651,-31.2734 45.6236,-34.1856"/>
</g>
<!-- x14&#45;&gt;x24 -->
<g id="edge19" class="edge"><title>x14&#45;&gt;x24</title>
<path fill="none" stroke="black" d="M14.2752,-7C22.0076,-7 35.2861,-7 44.7876,-7"/>
<polygon fill="black" stroke="black" points="44.8751,-8.7501 49.8751,-7 44.875,-5.2501 44.8751,-8.7501"/>
</g>
<!-- x14&#45;&gt;x25 -->
<g id="edge20" class="edge"><title>x14&#45;&gt;x25</title>
<path fill="none" stroke="black" d="M10.3151,-13.1737C17.8679,-33.3145 41.8693,-97.3182 51.719,-123.584"/>
<polygon fill="black" stroke="black" points="50.2008,-124.52 53.595,-128.587 53.4779,-123.291 50.2008,-124.52"/>
</g>
<!-- x15 -->
<g id="node5" class="node"><title>x15</title>
<ellipse fill="black" stroke="black" cx="7" cy="-135" rx="7" ry="7"/>
</g>
<!-- x15&#45;&gt;x21 -->
<g id="edge21" class="edge"><title>x15&#45;&gt;x21</title>
<path fill="none" stroke="black" d="M13.1368,-131.575C21.1065,-126.262 36.5731,-115.951 46.5849,-109.277"/>
<polygon fill="black" stroke="black" points="47.5651,-110.727 50.7546,-106.497 45.6236,-107.814 47.5651,-110.727"/>
</g>
<!-- x15&#45;&gt;x22 -->
<g id="edge22" class="edge"><title>x15&#45;&gt;x22</title>
<path fill="none" stroke="black" d="M12.0925,-129.543C20.3215,-118.571 38.9497,-93.7337 49.097,-80.204"/>
<polygon fill="black" stroke="black" points="50.5858,-81.1356 52.1859,-76.0855 47.7858,-79.0355 50.5858,-81.1356"/>
</g>
<!-- x15&#45;&gt;x23 -->
<g id="edge23" class="edge"><title>x15&#45;&gt;x23</title>
<path fill="none" stroke="black" d="M11.0026,-128.995C18.9493,-113.101 40.61,-69.78 50.6984,-49.6032"/>
<polygon fill="black" stroke="black" points="52.3276,-50.2577 52.9985,-45.003 49.1971,-48.6925 52.3276,-50.2577"/>
</g>
<!-- x15&#45;&gt;x24 -->
<g id="edge24" class="edge"><title>x15&#45;&gt;x24</title>
<path fill="none" stroke="black" d="M10.3151,-128.826C17.8679,-108.685 41.8693,-44.6818 51.719,-18.416"/>
<polygon fill="black" stroke="black" points="53.4779,-18.7094 53.595,-13.4133 50.2008,-17.4804 53.4779,-18.7094"/>
</g>
<!-- x15&#45;&gt;x25 -->
<g id="edge25" class="edge"><title>x15&#45;&gt;x25</title>
<path fill="none" stroke="black" d="M14.2752,-135C22.0076,-135 35.2861,-135 44.7876,-135"/>
<polygon fill="black" stroke="black" points="44.8751,-136.75 49.8751,-135 44.875,-133.25 44.8751,-136.75"/>
</g>
<!-- x31 -->
<g id="node11" class="node"><title>x31</title>
<ellipse fill="none" stroke="none" cx="107" cy="-103" rx="7" ry="7"/>
<text text-anchor="middle" x="107" y="-98.8" font-family="Times,serif" font-size="14.00">⋮</text>
</g>
<!-- x21&#45;&gt;x31 -->
<g id="edge26" class="edge"><title>x21&#45;&gt;x31</title>
<path fill="none" stroke="black" d="M64.2752,-103C72.0076,-103 85.2861,-103 94.7876,-103"/>
<polygon fill="black" stroke="black" points="94.8751,-104.75 99.8751,-103 94.875,-101.25 94.8751,-104.75"/>
</g>
<!-- x32 -->
<g id="node12" class="node"><title>x32</title>
<ellipse fill="none" stroke="none" cx="107" cy="-71" rx="7" ry="7"/>
<text text-anchor="middle" x="107" y="-66.8" font-family="Times,serif" font-size="14.00">⋮</text>
</g>
<!-- x21&#45;&gt;x32 -->
<g id="edge27" class="edge"><title>x21&#45;&gt;x32</title>
<path fill="none" stroke="black" d="M63.1368,-99.5754C71.1065,-94.2623 86.5731,-83.9513 96.5849,-77.2767"/>
<polygon fill="black" stroke="black" points="97.5651,-78.7266 100.755,-74.4969 95.6236,-75.8144 97.5651,-78.7266"/>
</g>
<!-- x33 -->
<g id="node13" class="node"><title>x33</title>
<ellipse fill="none" stroke="none" cx="107" cy="-39" rx="7" ry="7"/>
<text text-anchor="middle" x="107" y="-34.8" font-family="Times,serif" font-size="14.00">⋮</text>
</g>
<!-- x21&#45;&gt;x33 -->
<g id="edge28" class="edge"><title>x21&#45;&gt;x33</title>
<path fill="none" stroke="black" d="M62.0925,-97.5434C70.3215,-86.5714 88.9497,-61.7337 99.097,-48.204"/>
<polygon fill="black" stroke="black" points="100.586,-49.1356 102.186,-44.0855 97.7858,-47.0355 100.586,-49.1356"/>
</g>
<!-- x34 -->
<g id="node14" class="node"><title>x34</title>
<ellipse fill="none" stroke="none" cx="107" cy="-7" rx="7" ry="7"/>
<text text-anchor="middle" x="107" y="-2.8" font-family="Times,serif" font-size="14.00">⋮</text>
</g>
<!-- x21&#45;&gt;x34 -->
<g id="edge29" class="edge"><title>x21&#45;&gt;x34</title>
<path fill="none" stroke="black" d="M61.0026,-96.9948C68.9493,-81.1014 90.61,-37.78 100.698,-17.6032"/>
<polygon fill="black" stroke="black" points="102.328,-18.2577 102.999,-13.003 99.1971,-16.6925 102.328,-18.2577"/>
</g>
<!-- x35 -->
<g id="node15" class="node"><title>x35</title>
<ellipse fill="none" stroke="none" cx="107" cy="-135" rx="7" ry="7"/>
<text text-anchor="middle" x="107" y="-130.8" font-family="Times,serif" font-size="14.00">⋮</text>
</g>
<!-- x21&#45;&gt;x35 -->
<g id="edge30" class="edge"><title>x21&#45;&gt;x35</title>
<path fill="none" stroke="black" d="M63.1368,-106.425C71.1065,-111.738 86.5731,-122.049 96.5849,-128.723"/>
<polygon fill="black" stroke="black" points="95.6236,-130.186 100.755,-131.503 97.5651,-127.273 95.6236,-130.186"/>
</g>
<!-- x22&#45;&gt;x31 -->
<g id="edge31" class="edge"><title>x22&#45;&gt;x31</title>
<path fill="none" stroke="black" d="M63.1368,-74.4246C71.1065,-79.7377 86.5731,-90.0487 96.5849,-96.7233"/>
<polygon fill="black" stroke="black" points="95.6236,-98.1856 100.755,-99.5031 97.5651,-95.2734 95.6236,-98.1856"/>
</g>
<!-- x22&#45;&gt;x32 -->
<g id="edge32" class="edge"><title>x22&#45;&gt;x32</title>
<path fill="none" stroke="black" d="M64.2752,-71C72.0076,-71 85.2861,-71 94.7876,-71"/>
<polygon fill="black" stroke="black" points="94.8751,-72.7501 99.8751,-71 94.875,-69.2501 94.8751,-72.7501"/>
</g>
<!-- x22&#45;&gt;x33 -->
<g id="edge33" class="edge"><title>x22&#45;&gt;x33</title>
<path fill="none" stroke="black" d="M63.1368,-67.5754C71.1065,-62.2623 86.5731,-51.9513 96.5849,-45.2767"/>
<polygon fill="black" stroke="black" points="97.5651,-46.7266 100.755,-42.4969 95.6236,-43.8144 97.5651,-46.7266"/>
</g>
<!-- x22&#45;&gt;x34 -->
<g id="edge34" class="edge"><title>x22&#45;&gt;x34</title>
<path fill="none" stroke="black" d="M62.0925,-65.5434C70.3215,-54.5714 88.9497,-29.7337 99.097,-16.204"/>
<polygon fill="black" stroke="black" points="100.586,-17.1356 102.186,-12.0855 97.7858,-15.0355 100.586,-17.1356"/>
</g>
<!-- x22&#45;&gt;x35 -->
<g id="edge35" class="edge"><title>x22&#45;&gt;x35</title>
<path fill="none" stroke="black" d="M62.0925,-76.4566C70.3215,-87.4286 88.9497,-112.266 99.097,-125.796"/>
<polygon fill="black" stroke="black" points="97.7858,-126.964 102.186,-129.914 100.586,-124.864 97.7858,-126.964"/>
</g>
<!-- x23&#45;&gt;x31 -->
<g id="edge36" class="edge"><title>x23&#45;&gt;x31</title>
<path fill="none" stroke="black" d="M62.0925,-44.4566C70.3215,-55.4286 88.9497,-80.2663 99.097,-93.796"/>
<polygon fill="black" stroke="black" points="97.7858,-94.9645 102.186,-97.9145 100.586,-92.8644 97.7858,-94.9645"/>
</g>
<!-- x23&#45;&gt;x32 -->
<g id="edge37" class="edge"><title>x23&#45;&gt;x32</title>
<path fill="none" stroke="black" d="M63.1368,-42.4246C71.1065,-47.7377 86.5731,-58.0487 96.5849,-64.7233"/>
<polygon fill="black" stroke="black" points="95.6236,-66.1856 100.755,-67.5031 97.5651,-63.2734 95.6236,-66.1856"/>
</g>
<!-- x23&#45;&gt;x33 -->
<g id="edge38" class="edge"><title>x23&#45;&gt;x33</title>
<path fill="none" stroke="black" d="M64.2752,-39C72.0076,-39 85.2861,-39 94.7876,-39"/>
<polygon fill="black" stroke="black" points="94.8751,-40.7501 99.8751,-39 94.875,-37.2501 94.8751,-40.7501"/>
</g>
<!-- x23&#45;&gt;x34 -->
<g id="edge39" class="edge"><title>x23&#45;&gt;x34</title>
<path fill="none" stroke="black" d="M63.1368,-35.5754C71.1065,-30.2623 86.5731,-19.9513 96.5849,-13.2767"/>
<polygon fill="black" stroke="black" points="97.5651,-14.7266 100.755,-10.4969 95.6236,-11.8144 97.5651,-14.7266"/>
</g>
<!-- x23&#45;&gt;x35 -->
<g id="edge40" class="edge"><title>x23&#45;&gt;x35</title>
<path fill="none" stroke="black" d="M61.0026,-45.0052C68.9493,-60.8986 90.61,-104.22 100.698,-124.397"/>
<polygon fill="black" stroke="black" points="99.1971,-125.308 102.999,-128.997 102.328,-123.742 99.1971,-125.308"/>
</g>
<!-- x24&#45;&gt;x31 -->
<g id="edge41" class="edge"><title>x24&#45;&gt;x31</title>
<path fill="none" stroke="black" d="M61.0026,-13.0052C68.9493,-28.8986 90.61,-72.22 100.698,-92.3968"/>
<polygon fill="black" stroke="black" points="99.1971,-93.3075 102.999,-96.997 102.328,-91.7423 99.1971,-93.3075"/>
</g>
<!-- x24&#45;&gt;x32 -->
<g id="edge42" class="edge"><title>x24&#45;&gt;x32</title>
<path fill="none" stroke="black" d="M62.0925,-12.4566C70.3215,-23.4286 88.9497,-48.2663 99.097,-61.796"/>
<polygon fill="black" stroke="black" points="97.7858,-62.9645 102.186,-65.9145 100.586,-60.8644 97.7858,-62.9645"/>
</g>
<!-- x24&#45;&gt;x33 -->
<g id="edge43" class="edge"><title>x24&#45;&gt;x33</title>
<path fill="none" stroke="black" d="M63.1368,-10.4246C71.1065,-15.7377 86.5731,-26.0487 96.5849,-32.7233"/>
<polygon fill="black" stroke="black" points="95.6236,-34.1856 100.755,-35.5031 97.5651,-31.2734 95.6236,-34.1856"/>
</g>
<!-- x24&#45;&gt;x34 -->
<g id="edge44" class="edge"><title>x24&#45;&gt;x34</title>
<path fill="none" stroke="black" d="M64.2752,-7C72.0076,-7 85.2861,-7 94.7876,-7"/>
<polygon fill="black" stroke="black" points="94.8751,-8.7501 99.8751,-7 94.875,-5.2501 94.8751,-8.7501"/>
</g>
<!-- x24&#45;&gt;x35 -->
<g id="edge45" class="edge"><title>x24&#45;&gt;x35</title>
<path fill="none" stroke="black" d="M60.3151,-13.1737C67.8679,-33.3145 91.8693,-97.3182 101.719,-123.584"/>
<polygon fill="black" stroke="black" points="100.201,-124.52 103.595,-128.587 103.478,-123.291 100.201,-124.52"/>
</g>
<!-- x25&#45;&gt;x31 -->
<g id="edge46" class="edge"><title>x25&#45;&gt;x31</title>
<path fill="none" stroke="black" d="M63.1368,-131.575C71.1065,-126.262 86.5731,-115.951 96.5849,-109.277"/>
<polygon fill="black" stroke="black" points="97.5651,-110.727 100.755,-106.497 95.6236,-107.814 97.5651,-110.727"/>
</g>
<!-- x25&#45;&gt;x32 -->
<g id="edge47" class="edge"><title>x25&#45;&gt;x32</title>
<path fill="none" stroke="black" d="M62.0925,-129.543C70.3215,-118.571 88.9497,-93.7337 99.097,-80.204"/>
<polygon fill="black" stroke="black" points="100.586,-81.1356 102.186,-76.0855 97.7858,-79.0355 100.586,-81.1356"/>
</g>
<!-- x25&#45;&gt;x33 -->
<g id="edge48" class="edge"><title>x25&#45;&gt;x33</title>
<path fill="none" stroke="black" d="M61.0026,-128.995C68.9493,-113.101 90.61,-69.78 100.698,-49.6032"/>
<polygon fill="black" stroke="black" points="102.328,-50.2577 102.999,-45.003 99.1971,-48.6925 102.328,-50.2577"/>
</g>
<!-- x25&#45;&gt;x34 -->
<g id="edge49" class="edge"><title>x25&#45;&gt;x34</title>
<path fill="none" stroke="black" d="M60.3151,-128.826C67.8679,-108.685 91.8693,-44.6818 101.719,-18.416"/>
<polygon fill="black" stroke="black" points="103.478,-18.7094 103.595,-13.4133 100.201,-17.4804 103.478,-18.7094"/>
</g>
<!-- x25&#45;&gt;x35 -->
<g id="edge50" class="edge"><title>x25&#45;&gt;x35</title>
<path fill="none" stroke="black" d="M64.2752,-135C72.0076,-135 85.2861,-135 94.7876,-135"/>
<polygon fill="black" stroke="black" points="94.8751,-136.75 99.8751,-135 94.875,-133.25 94.8751,-136.75"/>
</g>
<!-- x41 -->
<g id="node16" class="node"><title>x41</title>
<ellipse fill="black" stroke="black" cx="157" cy="-103" rx="7" ry="7"/>
</g>
<!-- x31&#45;&gt;x41 -->
<g id="edge51" class="edge"><title>x31&#45;&gt;x41</title>
<path fill="none" stroke="black" d="M114.275,-103C122.008,-103 135.286,-103 144.788,-103"/>
<polygon fill="black" stroke="black" points="144.875,-104.75 149.875,-103 144.875,-101.25 144.875,-104.75"/>
</g>
<!-- x42 -->
<g id="node17" class="node"><title>x42</title>
<ellipse fill="black" stroke="black" cx="157" cy="-71" rx="7" ry="7"/>
</g>
<!-- x31&#45;&gt;x42 -->
<g id="edge52" class="edge"><title>x31&#45;&gt;x42</title>
<path fill="none" stroke="black" d="M113.137,-99.5754C121.107,-94.2623 136.573,-83.9513 146.585,-77.2767"/>
<polygon fill="black" stroke="black" points="147.565,-78.7266 150.755,-74.4969 145.624,-75.8144 147.565,-78.7266"/>
</g>
<!-- x43 -->
<g id="node18" class="node"><title>x43</title>
<ellipse fill="black" stroke="black" cx="157" cy="-39" rx="7" ry="7"/>
</g>
<!-- x31&#45;&gt;x43 -->
<g id="edge53" class="edge"><title>x31&#45;&gt;x43</title>
<path fill="none" stroke="black" d="M112.092,-97.5434C120.321,-86.5714 138.95,-61.7337 149.097,-48.204"/>
<polygon fill="black" stroke="black" points="150.586,-49.1356 152.186,-44.0855 147.786,-47.0355 150.586,-49.1356"/>
</g>
<!-- x44 -->
<g id="node19" class="node"><title>x44</title>
<ellipse fill="black" stroke="black" cx="157" cy="-7" rx="7" ry="7"/>
<text text-anchor="middle" x="157" y="-2.8" font-family="Times,serif" font-size="14.00" fill="white">T</text>
</g>
<!-- x31&#45;&gt;x44 -->
<g id="edge54" class="edge"><title>x31&#45;&gt;x44</title>
<path fill="none" stroke="black" d="M111.003,-96.9948C118.949,-81.1014 140.61,-37.78 150.698,-17.6032"/>
<polygon fill="black" stroke="black" points="152.328,-18.2577 152.999,-13.003 149.197,-16.6925 152.328,-18.2577"/>
</g>
<!-- x45 -->
<g id="node20" class="node"><title>x45</title>
<ellipse fill="black" stroke="black" cx="157" cy="-135" rx="7" ry="7"/>
</g>
<!-- x31&#45;&gt;x45 -->
<g id="edge55" class="edge"><title>x31&#45;&gt;x45</title>
<path fill="none" stroke="black" d="M113.137,-106.425C121.107,-111.738 136.573,-122.049 146.585,-128.723"/>
<polygon fill="black" stroke="black" points="145.624,-130.186 150.755,-131.503 147.565,-127.273 145.624,-130.186"/>
</g>
<!-- x32&#45;&gt;x41 -->
<g id="edge56" class="edge"><title>x32&#45;&gt;x41</title>
<path fill="none" stroke="black" d="M113.137,-74.4246C121.107,-79.7377 136.573,-90.0487 146.585,-96.7233"/>
<polygon fill="black" stroke="black" points="145.624,-98.1856 150.755,-99.5031 147.565,-95.2734 145.624,-98.1856"/>
</g>
<!-- x32&#45;&gt;x42 -->
<g id="edge57" class="edge"><title>x32&#45;&gt;x42</title>
<path fill="none" stroke="black" d="M114.275,-71C122.008,-71 135.286,-71 144.788,-71"/>
<polygon fill="black" stroke="black" points="144.875,-72.7501 149.875,-71 144.875,-69.2501 144.875,-72.7501"/>
</g>
<!-- x32&#45;&gt;x43 -->
<g id="edge58" class="edge"><title>x32&#45;&gt;x43</title>
<path fill="none" stroke="black" d="M113.137,-67.5754C121.107,-62.2623 136.573,-51.9513 146.585,-45.2767"/>
<polygon fill="black" stroke="black" points="147.565,-46.7266 150.755,-42.4969 145.624,-43.8144 147.565,-46.7266"/>
</g>
<!-- x32&#45;&gt;x44 -->
<g id="edge59" class="edge"><title>x32&#45;&gt;x44</title>
<path fill="none" stroke="black" d="M112.092,-65.5434C120.321,-54.5714 138.95,-29.7337 149.097,-16.204"/>
<polygon fill="black" stroke="black" points="150.586,-17.1356 152.186,-12.0855 147.786,-15.0355 150.586,-17.1356"/>
</g>
<!-- x32&#45;&gt;x45 -->
<g id="edge60" class="edge"><title>x32&#45;&gt;x45</title>
<path fill="none" stroke="black" d="M112.092,-76.4566C120.321,-87.4286 138.95,-112.266 149.097,-125.796"/>
<polygon fill="black" stroke="black" points="147.786,-126.964 152.186,-129.914 150.586,-124.864 147.786,-126.964"/>
</g>
<!-- x33&#45;&gt;x41 -->
<g id="edge61" class="edge"><title>x33&#45;&gt;x41</title>
<path fill="none" stroke="black" d="M112.092,-44.4566C120.321,-55.4286 138.95,-80.2663 149.097,-93.796"/>
<polygon fill="black" stroke="black" points="147.786,-94.9645 152.186,-97.9145 150.586,-92.8644 147.786,-94.9645"/>
</g>
<!-- x33&#45;&gt;x42 -->
<g id="edge62" class="edge"><title>x33&#45;&gt;x42</title>
<path fill="none" stroke="black" d="M113.137,-42.4246C121.107,-47.7377 136.573,-58.0487 146.585,-64.7233"/>
<polygon fill="black" stroke="black" points="145.624,-66.1856 150.755,-67.5031 147.565,-63.2734 145.624,-66.1856"/>
</g>
<!-- x33&#45;&gt;x43 -->
<g id="edge63" class="edge"><title>x33&#45;&gt;x43</title>
<path fill="none" stroke="black" d="M114.275,-39C122.008,-39 135.286,-39 144.788,-39"/>
<polygon fill="black" stroke="black" points="144.875,-40.7501 149.875,-39 144.875,-37.2501 144.875,-40.7501"/>
</g>
<!-- x33&#45;&gt;x44 -->
<g id="edge64" class="edge"><title>x33&#45;&gt;x44</title>
<path fill="none" stroke="black" d="M113.137,-35.5754C121.107,-30.2623 136.573,-19.9513 146.585,-13.2767"/>
<polygon fill="black" stroke="black" points="147.565,-14.7266 150.755,-10.4969 145.624,-11.8144 147.565,-14.7266"/>
</g>
<!-- x33&#45;&gt;x45 -->
<g id="edge65" class="edge"><title>x33&#45;&gt;x45</title>
<path fill="none" stroke="black" d="M111.003,-45.0052C118.949,-60.8986 140.61,-104.22 150.698,-124.397"/>
<polygon fill="black" stroke="black" points="149.197,-125.308 152.999,-128.997 152.328,-123.742 149.197,-125.308"/>
</g>
<!-- x34&#45;&gt;x41 -->
<g id="edge66" class="edge"><title>x34&#45;&gt;x41</title>
<path fill="none" stroke="black" d="M111.003,-13.0052C118.949,-28.8986 140.61,-72.22 150.698,-92.3968"/>
<polygon fill="black" stroke="black" points="149.197,-93.3075 152.999,-96.997 152.328,-91.7423 149.197,-93.3075"/>
</g>
<!-- x34&#45;&gt;x42 -->
<g id="edge67" class="edge"><title>x34&#45;&gt;x42</title>
<path fill="none" stroke="black" d="M112.092,-12.4566C120.321,-23.4286 138.95,-48.2663 149.097,-61.796"/>
<polygon fill="black" stroke="black" points="147.786,-62.9645 152.186,-65.9145 150.586,-60.8644 147.786,-62.9645"/>
</g>
<!-- x34&#45;&gt;x43 -->
<g id="edge68" class="edge"><title>x34&#45;&gt;x43</title>
<path fill="none" stroke="black" d="M113.137,-10.4246C121.107,-15.7377 136.573,-26.0487 146.585,-32.7233"/>
<polygon fill="black" stroke="black" points="145.624,-34.1856 150.755,-35.5031 147.565,-31.2734 145.624,-34.1856"/>
</g>
<!-- x34&#45;&gt;x44 -->
<g id="edge69" class="edge"><title>x34&#45;&gt;x44</title>
<path fill="none" stroke="black" d="M114.275,-7C122.008,-7 135.286,-7 144.788,-7"/>
<polygon fill="black" stroke="black" points="144.875,-8.7501 149.875,-7 144.875,-5.2501 144.875,-8.7501"/>
</g>
<!-- x34&#45;&gt;x45 -->
<g id="edge70" class="edge"><title>x34&#45;&gt;x45</title>
<path fill="none" stroke="black" d="M110.315,-13.1737C117.868,-33.3145 141.869,-97.3182 151.719,-123.584"/>
<polygon fill="black" stroke="black" points="150.201,-124.52 153.595,-128.587 153.478,-123.291 150.201,-124.52"/>
</g>
<!-- x35&#45;&gt;x41 -->
<g id="edge71" class="edge"><title>x35&#45;&gt;x41</title>
<path fill="none" stroke="black" d="M113.137,-131.575C121.107,-126.262 136.573,-115.951 146.585,-109.277"/>
<polygon fill="black" stroke="black" points="147.565,-110.727 150.755,-106.497 145.624,-107.814 147.565,-110.727"/>
</g>
<!-- x35&#45;&gt;x42 -->
<g id="edge72" class="edge"><title>x35&#45;&gt;x42</title>
<path fill="none" stroke="black" d="M112.092,-129.543C120.321,-118.571 138.95,-93.7337 149.097,-80.204"/>
<polygon fill="black" stroke="black" points="150.586,-81.1356 152.186,-76.0855 147.786,-79.0355 150.586,-81.1356"/>
</g>
<!-- x35&#45;&gt;x43 -->
<g id="edge73" class="edge"><title>x35&#45;&gt;x43</title>
<path fill="none" stroke="black" d="M111.003,-128.995C118.949,-113.101 140.61,-69.78 150.698,-49.6032"/>
<polygon fill="black" stroke="black" points="152.328,-50.2577 152.999,-45.003 149.197,-48.6925 152.328,-50.2577"/>
</g>
<!-- x35&#45;&gt;x44 -->
<g id="edge74" class="edge"><title>x35&#45;&gt;x44</title>
<path fill="none" stroke="black" d="M110.315,-128.826C117.868,-108.685 141.869,-44.6818 151.719,-18.416"/>
<polygon fill="black" stroke="black" points="153.478,-18.7094 153.595,-13.4133 150.201,-17.4804 153.478,-18.7094"/>
</g>
<!-- x35&#45;&gt;x45 -->
<g id="edge75" class="edge"><title>x35&#45;&gt;x45</title>
<path fill="none" stroke="black" d="M114.275,-135C122.008,-135 135.286,-135 144.788,-135"/>
<polygon fill="black" stroke="black" points="144.875,-136.75 149.875,-135 144.875,-133.25 144.875,-136.75"/>
</g>
</g>
</svg>
