<?xml version="1.0" encoding="UTF-8" standalone="no"?>
<!DOCTYPE svg PUBLIC "-//W3C//DTD SVG 1.1//EN"
 "http://www.w3.org/Graphics/SVG/1.1/DTD/svg11.dtd">
<!-- Generated by graphviz version 2.38.0 (20140413.2041)
 -->
<!-- Title: G Pages: 1 -->
<svg width="296pt" height="250pt"
 viewBox="0.00 0.00 296.16 249.74" xmlns="http://www.w3.org/2000/svg" xmlns:xlink="http://www.w3.org/1999/xlink">
<g id="graph0" class="graph" transform="scale(1 1) rotate(0) translate(4 245.744)">
<title>G</title>
<!-- x11 -->
<g id="node1" class="node"><title>x11</title>
<ellipse fill="none" stroke="black" cx="23.372" cy="-185.372" rx="23.0964" ry="23.0964"/>
<text text-anchor="middle" x="23.372" y="-181.172" font-family="Times,serif" font-size="14.00">x11</text>
</g>
<!-- x21 -->
<g id="node4" class="node"><title>x21</title>
<ellipse fill="none" stroke="black" cx="106.116" cy="-88.372" rx="23.2447" ry="23.2447"/>
<text text-anchor="middle" x="106.116" y="-84.172" font-family="Times,serif" font-size="14.00">x21</text>
</g>
<!-- x11&#45;&gt;x21 -->
<g id="edge1" class="edge"><title>x11&#45;&gt;x21</title>
<path fill="none" stroke="black" d="M38.8074,-168.03C51.3597,-152.951 69.7128,-130.903 83.9299,-113.824"/>
<polygon fill="black" stroke="black" points="86.8257,-115.815 90.5334,-105.891 81.4457,-111.337 86.8257,-115.815"/>
</g>
<!-- x22 -->
<g id="node5" class="node"><title>x22</title>
<ellipse fill="none" stroke="black" cx="106.116" cy="-23.372" rx="23.2447" ry="23.2447"/>
<text text-anchor="middle" x="106.116" y="-19.172" font-family="Times,serif" font-size="14.00">x22</text>
</g>
<!-- x11&#45;&gt;x22 -->
<g id="edge2" class="edge"><title>x11&#45;&gt;x22</title>
<path fill="none" stroke="black" d="M38.219,-167.266C41.2538,-162.855 44.2895,-158.055 46.744,-153.372 68.0911,-112.643 61.6902,-97.2536 82.744,-56.372 83.774,-54.3721 84.903,-52.3481 86.0893,-50.3384"/>
<polygon fill="black" stroke="black" points="89.1414,-52.0604 91.5277,-41.7378 83.225,-48.3192 89.1414,-52.0604"/>
</g>
<!-- x23 -->
<g id="node6" class="node"><title>x23</title>
<ellipse fill="none" stroke="black" cx="106.116" cy="-218.372" rx="23.2447" ry="23.2447"/>
<text text-anchor="middle" x="106.116" y="-214.172" font-family="Times,serif" font-size="14.00">x23</text>
</g>
<!-- x11&#45;&gt;x23 -->
<g id="edge3" class="edge"><title>x11&#45;&gt;x23</title>
<path fill="none" stroke="black" d="M45.1656,-193.87C54.1371,-197.537 64.8105,-201.899 74.6477,-205.92"/>
<polygon fill="black" stroke="black" points="73.5314,-209.244 84.1123,-209.788 76.1797,-202.765 73.5314,-209.244"/>
</g>
<!-- x24 -->
<g id="node7" class="node"><title>x24</title>
<ellipse fill="none" stroke="black" cx="106.116" cy="-153.372" rx="23.2447" ry="23.2447"/>
<text text-anchor="middle" x="106.116" y="-149.172" font-family="Times,serif" font-size="14.00">x24</text>
</g>
<!-- x11&#45;&gt;x24 -->
<g id="edge4" class="edge"><title>x11&#45;&gt;x24</title>
<path fill="none" stroke="black" d="M45.1656,-177.131C54.1371,-173.576 64.8105,-169.346 74.6477,-165.447"/>
<polygon fill="black" stroke="black" points="76.1053,-168.634 84.1123,-161.696 73.5262,-162.127 76.1053,-168.634"/>
</g>
<!-- x12 -->
<g id="node2" class="node"><title>x12</title>
<ellipse fill="none" stroke="black" cx="23.372" cy="-121.372" rx="23.2447" ry="23.2447"/>
<text text-anchor="middle" x="23.372" y="-117.172" font-family="Times,serif" font-size="14.00">x12</text>
</g>
<!-- x12&#45;&gt;x21 -->
<g id="edge5" class="edge"><title>x12&#45;&gt;x21</title>
<path fill="none" stroke="black" d="M45.1656,-112.874C54.1371,-109.207 64.8105,-104.845 74.6477,-100.824"/>
<polygon fill="black" stroke="black" points="76.1797,-103.979 84.1123,-96.9562 73.5314,-97.4997 76.1797,-103.979"/>
</g>
<!-- x12&#45;&gt;x22 -->
<g id="edge6" class="edge"><title>x12&#45;&gt;x22</title>
<path fill="none" stroke="black" d="M39.1817,-103.397C51.7018,-88.2015 69.7937,-66.2431 83.8603,-49.1704"/>
<polygon fill="black" stroke="black" points="86.7426,-51.1762 90.4002,-41.2328 81.3401,-46.725 86.7426,-51.1762"/>
</g>
<!-- x12&#45;&gt;x23 -->
<g id="edge7" class="edge"><title>x12&#45;&gt;x23</title>
<path fill="none" stroke="black" d="M39.1817,-139.163C51.7018,-154.204 69.7937,-175.938 83.8603,-192.837"/>
<polygon fill="black" stroke="black" points="81.3125,-195.247 90.4002,-200.694 86.6925,-190.769 81.3125,-195.247"/>
</g>
<!-- x12&#45;&gt;x24 -->
<g id="edge8" class="edge"><title>x12&#45;&gt;x24</title>
<path fill="none" stroke="black" d="M45.5866,-129.78C54.4876,-133.307 65.0061,-137.476 74.7062,-141.32"/>
<polygon fill="black" stroke="black" points="73.4571,-144.59 84.0432,-145.021 76.0362,-138.082 73.4571,-144.59"/>
</g>
<!-- x13 -->
<g id="node3" class="node"><title>x13</title>
<ellipse fill="none" stroke="black" cx="23.372" cy="-56.372" rx="23.2447" ry="23.2447"/>
<text text-anchor="middle" x="23.372" y="-52.172" font-family="Times,serif" font-size="14.00">x13</text>
</g>
<!-- x13&#45;&gt;x21 -->
<g id="edge9" class="edge"><title>x13&#45;&gt;x21</title>
<path fill="none" stroke="black" d="M45.5866,-64.7796C54.4876,-68.3073 65.0061,-72.4759 74.7062,-76.3201"/>
<polygon fill="black" stroke="black" points="73.4571,-79.5899 84.0432,-80.0205 76.0362,-73.0823 73.4571,-79.5899"/>
</g>
<!-- x13&#45;&gt;x22 -->
<g id="edge10" class="edge"><title>x13&#45;&gt;x22</title>
<path fill="none" stroke="black" d="M45.1656,-47.8737C54.1371,-44.2071 64.8105,-39.8449 74.6477,-35.8244"/>
<polygon fill="black" stroke="black" points="76.1797,-38.9794 84.1123,-31.9562 73.5314,-32.4997 76.1797,-38.9794"/>
</g>
<!-- x13&#45;&gt;x23 -->
<g id="edge11" class="edge"><title>x13&#45;&gt;x23</title>
<path fill="none" stroke="black" d="M37.9485,-74.7439C41.0618,-79.3864 44.2004,-84.4535 46.744,-89.372 67.6759,-129.848 61.8121,-144.896 82.744,-185.372 83.7774,-187.37 84.9089,-189.393 86.0971,-191.402"/>
<polygon fill="black" stroke="black" points="83.2339,-193.422 91.5396,-200 89.1486,-189.679 83.2339,-193.422"/>
</g>
<!-- x13&#45;&gt;x24 -->
<g id="edge12" class="edge"><title>x13&#45;&gt;x24</title>
<path fill="none" stroke="black" d="M39.1817,-74.1633C51.7018,-89.204 69.7937,-110.938 83.8603,-127.837"/>
<polygon fill="black" stroke="black" points="81.3125,-130.247 90.4002,-135.694 86.6925,-125.769 81.3125,-130.247"/>
</g>
<!-- xx1 -->
<g id="node8" class="node"><title>xx1</title>
<ellipse fill="none" stroke="black" cx="183.488" cy="-174.372" rx="18" ry="18"/>
<text text-anchor="middle" x="183.488" y="-170.172" font-family="Times,serif" font-size="14.00">...</text>
</g>
<!-- x21&#45;&gt;xx1 -->
<g id="edge13" class="edge"><title>x21&#45;&gt;xx1</title>
<path fill="none" stroke="black" d="M122.369,-105.775C134.491,-119.607 151.482,-138.994 164.31,-153.631"/>
<polygon fill="black" stroke="black" points="161.728,-155.994 170.951,-161.208 166.992,-151.381 161.728,-155.994"/>
</g>
<!-- xx2 -->
<g id="node9" class="node"><title>xx2</title>
<ellipse fill="none" stroke="black" cx="183.488" cy="-120.372" rx="18" ry="18"/>
<text text-anchor="middle" x="183.488" y="-116.172" font-family="Times,serif" font-size="14.00">...</text>
</g>
<!-- x21&#45;&gt;xx2 -->
<g id="edge14" class="edge"><title>x21&#45;&gt;xx2</title>
<path fill="none" stroke="black" d="M128.111,-97.2858C137.163,-101.129 147.825,-105.656 157.299,-109.678"/>
<polygon fill="black" stroke="black" points="156.052,-112.951 166.624,-113.637 158.787,-106.507 156.052,-112.951"/>
</g>
<!-- xx3 -->
<g id="node10" class="node"><title>xx3</title>
<ellipse fill="none" stroke="black" cx="183.488" cy="-66.372" rx="18" ry="18"/>
<text text-anchor="middle" x="183.488" y="-62.172" font-family="Times,serif" font-size="14.00">...</text>
</g>
<!-- x21&#45;&gt;xx3 -->
<g id="edge15" class="edge"><title>x21&#45;&gt;xx3</title>
<path fill="none" stroke="black" d="M128.917,-82.0087C137.417,-79.5278 147.236,-76.6616 156.128,-74.0662"/>
<polygon fill="black" stroke="black" points="157.387,-77.3448 166.006,-71.183 155.425,-70.6252 157.387,-77.3448"/>
</g>
<!-- x22&#45;&gt;xx1 -->
<g id="edge16" class="edge"><title>x22&#45;&gt;xx1</title>
<path fill="none" stroke="black" d="M120.63,-41.7765C123.745,-46.418 126.9,-51.4765 129.488,-56.372 149.813,-94.8252 145.817,-108.58 165.488,-147.372 166.08,-148.539 166.707,-149.721 167.359,-150.904"/>
<polygon fill="black" stroke="black" points="164.522,-152.983 172.628,-159.805 170.545,-149.417 164.522,-152.983"/>
</g>
<!-- x22&#45;&gt;xx2 -->
<g id="edge17" class="edge"><title>x22&#45;&gt;xx2</title>
<path fill="none" stroke="black" d="M121.293,-41.617C133.785,-57.6934 152.015,-81.1541 165.327,-98.2867"/>
<polygon fill="black" stroke="black" points="162.885,-100.848 171.784,-106.597 168.412,-96.5527 162.885,-100.848"/>
</g>
<!-- x22&#45;&gt;xx3 -->
<g id="edge18" class="edge"><title>x22&#45;&gt;xx3</title>
<path fill="none" stroke="black" d="M126.919,-34.6698C136.67,-40.2327 148.5,-46.9819 158.735,-52.8208"/>
<polygon fill="black" stroke="black" points="157.16,-55.9517 167.58,-57.867 160.629,-49.8715 157.16,-55.9517"/>
</g>
<!-- x23&#45;&gt;xx1 -->
<g id="edge19" class="edge"><title>x23&#45;&gt;xx1</title>
<path fill="none" stroke="black" d="M126.919,-206.812C136.67,-201.119 148.5,-194.213 158.735,-188.238"/>
<polygon fill="black" stroke="black" points="160.709,-191.139 167.58,-183.075 157.179,-185.094 160.709,-191.139"/>
</g>
<!-- x23&#45;&gt;xx2 -->
<g id="edge20" class="edge"><title>x23&#45;&gt;xx2</title>
<path fill="none" stroke="black" d="M121.293,-199.939C133.785,-183.697 152.015,-159.994 165.327,-142.685"/>
<polygon fill="black" stroke="black" points="168.462,-144.35 171.784,-134.289 162.913,-140.082 168.462,-144.35"/>
</g>
<!-- x23&#45;&gt;xx3 -->
<g id="edge21" class="edge"><title>x23&#45;&gt;xx3</title>
<path fill="none" stroke="black" d="M120.643,-199.974C123.758,-195.333 126.91,-190.272 129.488,-185.372 149.934,-146.515 145.703,-132.569 165.488,-93.372 166.078,-92.2038 166.703,-91.0212 167.353,-89.8369"/>
<polygon fill="black" stroke="black" points="170.541,-91.3229 172.617,-80.9335 164.515,-87.7602 170.541,-91.3229"/>
</g>
<!-- x24&#45;&gt;xx1 -->
<g id="edge22" class="edge"><title>x24&#45;&gt;xx1</title>
<path fill="none" stroke="black" d="M128.917,-159.446C137.417,-161.814 147.236,-164.55 156.128,-167.028"/>
<polygon fill="black" stroke="black" points="155.433,-170.467 166.006,-169.78 157.312,-163.724 155.433,-170.467"/>
</g>
<!-- x24&#45;&gt;xx2 -->
<g id="edge23" class="edge"><title>x24&#45;&gt;xx2</title>
<path fill="none" stroke="black" d="M127.712,-144.355C136.77,-140.389 147.499,-135.691 157.05,-131.51"/>
<polygon fill="black" stroke="black" points="158.701,-134.608 166.457,-127.391 155.893,-128.195 158.701,-134.608"/>
</g>
<!-- x24&#45;&gt;xx3 -->
<g id="edge24" class="edge"><title>x24&#45;&gt;xx3</title>
<path fill="none" stroke="black" d="M122.007,-136.184C134.17,-122.145 151.406,-102.249 164.369,-87.2863"/>
<polygon fill="black" stroke="black" points="167.169,-89.3999 171.071,-79.55 161.878,-84.8163 167.169,-89.3999"/>
</g>
<!-- xN1 -->
<g id="node11" class="node"><title>xN1</title>
<ellipse fill="none" stroke="black" cx="262.825" cy="-189.372" rx="25.1746" ry="25.1746"/>
<text text-anchor="middle" x="262.825" y="-185.172" font-family="Times,serif" font-size="14.00">xN1</text>
</g>
<!-- xx1&#45;&gt;xN1 -->
<g id="edge25" class="edge"><title>xx1&#45;&gt;xN1</title>
<path fill="none" stroke="black" d="M201.269,-177.627C209.016,-179.129 218.509,-180.971 227.662,-182.746"/>
<polygon fill="black" stroke="black" points="227.256,-186.232 237.739,-184.7 228.589,-179.36 227.256,-186.232"/>
</g>
<!-- xN2 -->
<g id="node12" class="node"><title>xN2</title>
<ellipse fill="none" stroke="black" cx="262.825" cy="-120.372" rx="25.1746" ry="25.1746"/>
<text text-anchor="middle" x="262.825" y="-116.172" font-family="Times,serif" font-size="14.00">xN2</text>
</g>
<!-- xx1&#45;&gt;xN2 -->
<g id="edge26" class="edge"><title>xx1&#45;&gt;xN2</title>
<path fill="none" stroke="black" d="M198.673,-164.468C208.358,-157.705 221.523,-148.513 233.327,-140.27"/>
<polygon fill="black" stroke="black" points="235.417,-143.08 241.613,-134.485 231.41,-137.34 235.417,-143.08"/>
</g>
<!-- xN3 -->
<g id="node13" class="node"><title>xN3</title>
<ellipse fill="none" stroke="black" cx="262.825" cy="-51.372" rx="25.1746" ry="25.1746"/>
<text text-anchor="middle" x="262.825" y="-47.172" font-family="Times,serif" font-size="14.00">xN3</text>
</g>
<!-- xx1&#45;&gt;xN3 -->
<g id="edge27" class="edge"><title>xx1&#45;&gt;xN3</title>
<path fill="none" stroke="black" d="M193.918,-159.565C196.403,-155.617 199.066,-151.345 201.488,-147.372 217.876,-120.494 220.49,-112.869 237.488,-86.372 238.852,-84.2462 240.284,-82.0653 241.743,-79.8816"/>
<polygon fill="black" stroke="black" points="244.676,-81.7931 247.41,-71.5571 238.889,-77.854 244.676,-81.7931"/>
</g>
<!-- xx2&#45;&gt;xN1 -->
<g id="edge28" class="edge"><title>xx2&#45;&gt;xN1</title>
<path fill="none" stroke="black" d="M197.607,-132.077C208.028,-141.374 222.93,-154.67 235.755,-166.113"/>
<polygon fill="black" stroke="black" points="233.622,-168.9 243.414,-172.946 238.283,-163.677 233.622,-168.9"/>
</g>
<!-- xx2&#45;&gt;xN2 -->
<g id="edge29" class="edge"><title>xx2&#45;&gt;xN2</title>
<path fill="none" stroke="black" d="M201.652,-120.372C209.2,-120.372 218.351,-120.372 227.215,-120.372"/>
<polygon fill="black" stroke="black" points="227.375,-123.872 237.375,-120.372 227.375,-116.872 227.375,-123.872"/>
</g>
<!-- xx2&#45;&gt;xN3 -->
<g id="edge30" class="edge"><title>xx2&#45;&gt;xN3</title>
<path fill="none" stroke="black" d="M197.607,-108.667C208.028,-99.3696 222.93,-86.0742 235.755,-74.6311"/>
<polygon fill="black" stroke="black" points="238.283,-77.067 243.414,-67.7979 233.622,-71.8437 238.283,-77.067"/>
</g>
<!-- xx3&#45;&gt;xN1 -->
<g id="edge31" class="edge"><title>xx3&#45;&gt;xN1</title>
<path fill="none" stroke="black" d="M193.918,-81.1787C196.403,-85.1267 199.066,-89.3993 201.488,-93.372 217.876,-120.25 220.49,-127.875 237.488,-154.372 238.852,-156.498 240.284,-158.679 241.743,-160.862"/>
<polygon fill="black" stroke="black" points="238.889,-162.89 247.41,-169.187 244.676,-158.951 238.889,-162.89"/>
</g>
<!-- xx3&#45;&gt;xN2 -->
<g id="edge32" class="edge"><title>xx3&#45;&gt;xN2</title>
<path fill="none" stroke="black" d="M198.673,-76.2765C208.358,-83.0387 221.523,-92.2315 233.327,-100.474"/>
<polygon fill="black" stroke="black" points="231.41,-103.404 241.613,-106.259 235.417,-97.6644 231.41,-103.404"/>
</g>
<!-- xx3&#45;&gt;xN3 -->
<g id="edge33" class="edge"><title>xx3&#45;&gt;xN3</title>
<path fill="none" stroke="black" d="M201.269,-63.1172C209.016,-61.6147 218.509,-59.7733 227.662,-57.9981"/>
<polygon fill="black" stroke="black" points="228.589,-61.3837 237.739,-56.0436 227.256,-54.5118 228.589,-61.3837"/>
</g>
</g>
</svg>
